<svg width="24" height="24" viewBox="0 0 24 24" fill="none" xmlns="http://www.w3.org/2000/svg">
<path fill-rule="evenodd" clip-rule="evenodd" d="M18.7338 6.77944C19.0987 7.081 19.15 7.62127 18.8485 7.98619L10.8085 17.7154L10.8064 17.7179C10.6371 17.9212 10.4246 18.0842 10.1844 18.1951C9.94425 18.3059 9.68236 18.3619 9.41783 18.3588C9.14898 18.3554 8.88361 18.2912 8.64311 18.171C8.4034 18.0511 8.19385 17.8787 8.03009 17.6666C8.02956 17.6659 8.02903 17.6652 8.0285 17.6645L5.51116 14.4279C5.22053 14.0543 5.28784 13.5158 5.66151 13.2251C6.03518 12.9345 6.5737 13.0018 6.86434 13.3755L9.38701 16.6189C9.39308 16.6268 9.40086 16.6332 9.40976 16.6377C9.41867 16.6421 9.42847 16.6445 9.43843 16.6446C9.44823 16.6447 9.45716 16.6427 9.46606 16.6386C9.47475 16.6346 9.48246 16.6287 9.48865 16.6214C9.48851 16.6216 9.4888 16.6212 9.48865 16.6214L17.527 6.89416C17.8286 6.52925 18.3688 6.47789 18.7338 6.77944Z" fill="#000"/>
</svg>
